<svg width="45" height="24" viewBox="0 0 45 24" fill="none" xmlns="http://www.w3.org/2000/svg">
<path d="M13.2181 7.92523C13.6656 7.38733 13.8873 6.69745 13.8369 6C13.1511 6.06609 12.5181 6.39625 12.0719 6.92049C11.8497 7.17159 11.6794 7.46406 11.5708 7.78108C11.4622 8.0981 11.4174 8.43342 11.439 8.76778C11.7807 8.77447 12.1192 8.70185 12.4279 8.55563C12.7366 8.40942 13.0072 8.19362 13.2181 7.92523V7.92523ZM13.7948 8.89487C12.8103 8.838 11.9805 9.45657 11.5093 9.45657C11.0382 9.45657 10.3209 8.92576 9.54739 8.93981C9.0409 8.95406 8.54703 9.10078 8.11513 9.36531C7.68323 9.62985 7.32842 10.0029 7.08617 10.4473C6.03136 12.2728 6.80489 14.9921 7.83157 16.4785C8.33084 17.1849 8.92857 18.0267 9.72319 17.9993C10.5178 17.972 10.7639 17.5079 11.6711 17.5079C12.5782 17.5079 12.8454 17.9993 13.633 17.9818C14.4206 17.9642 14.9691 17.2741 15.4614 16.5073C15.8164 15.9836 16.0935 15.4113 16.2841 14.8082C15.8112 14.5992 15.409 14.2581 15.1258 13.8261C14.8426 13.3941 14.6905 12.8895 14.6878 12.3732C14.6936 11.9151 14.8145 11.4657 15.0393 11.0663C15.2642 10.6669 15.5858 10.3302 15.9747 10.0871C15.7276 9.7343 15.4024 9.4431 15.0243 9.2361C14.6463 9.0291 14.2255 8.91186 13.7948 8.89346V8.89487ZM20.0744 7.47798V9.48255H21.6777V10.8061H20.0744V15.5489C20.0744 16.2567 20.3908 16.6176 21.094 16.6176C21.2869 16.6141 21.4794 16.6 21.6707 16.5754V17.9095C21.3568 17.9602 21.0392 17.9837 20.7213 17.9797C19.0618 17.9797 18.4218 17.3358 18.4218 15.7216V10.8377H17.1631V9.51063H18.3867V7.47938L20.0744 7.47798ZM27.2822 17.9067H25.5242L22.5708 9.51063H24.3217L26.3962 16.2567H26.4384L28.5128 9.51063H30.2287L27.2822 17.9067ZM35.0034 17.9067H33.4845V14.4662H30.2216V12.9511H33.4775V9.51063H34.9964V12.9511H38.2593V14.4662H35.0034V17.9067Z" fill="white"/>
<path d="M4.5824 0.5H40.2593V-0.5H4.5824V0.5ZM43.7593 4V20H44.7593V4H43.7593ZM40.2593 23.5H4.5824V24.5H40.2593V23.5ZM1.0824 20V4H0.0823975V20H1.0824ZM4.5824 23.5C2.6494 23.5 1.0824 21.933 1.0824 20H0.0823975C0.0823975 22.4853 2.09712 24.5 4.5824 24.5V23.5ZM43.7593 20C43.7593 21.933 42.1923 23.5 40.2593 23.5V24.5C42.7446 24.5 44.7593 22.4853 44.7593 20H43.7593ZM40.2593 0.5C42.1923 0.5 43.7593 2.067 43.7593 4H44.7593C44.7593 1.51472 42.7446 -0.5 40.2593 -0.5V0.5ZM4.5824 -0.5C2.09712 -0.5 0.0823975 1.51472 0.0823975 4H1.0824C1.0824 2.067 2.6494 0.5 4.5824 0.5V-0.5Z" fill="white"/>
</svg>
