<svg width="18" height="18" viewBox="0 0 18 18" fill="none" xmlns="http://www.w3.org/2000/svg">
<path d="M2.76481 8.99995C2.76481 9.39922 3.08121 9.72316 3.48049 9.72316L10.0874 9.72316C10.3736 10.4388 11.0818 10.9511 11.8954 10.9511C12.709 10.9511 13.4171 10.4388 13.7034 9.72316L15.7902 9.72316C16.1669 9.72316 16.4833 9.39922 16.4833 8.99995C16.4833 8.60821 16.1669 8.27673 15.7902 8.27673L13.7034 8.27673C13.4171 7.56105 12.7165 7.04878 11.8954 7.04878C11.0818 7.04878 10.3736 7.56105 10.0874 8.27673L3.48049 8.27673C3.08121 8.27673 2.76481 8.60067 2.76481 8.99995ZM7.43557 12.2619C6.62195 12.2619 5.92134 12.7667 5.62753 13.4824L3.45789 13.4824C3.08121 13.4824 2.76481 13.8063 2.76481 14.2056C2.76481 14.6124 3.08121 14.9288 3.45789 14.9288L5.62753 14.9288C5.9138 15.652 6.62195 16.1568 7.43557 16.1568C8.25671 16.1568 8.95733 15.652 9.25113 14.9288L15.7676 14.9288C16.1669 14.9288 16.4833 14.6049 16.4833 14.2056C16.4833 13.8138 16.1669 13.4824 15.7676 13.4824L9.2436 13.4824C8.95733 12.7667 8.25671 12.2619 7.43557 12.2619ZM2.76481 3.79431C2.76481 4.19359 3.08121 4.51753 3.45789 4.51753L5.62753 4.51753C5.92134 5.23321 6.62195 5.73795 7.43557 5.73795C8.25671 5.73795 8.95733 5.23321 9.2436 4.51753L15.7676 4.51753C16.1669 4.51753 16.4833 4.19359 16.4833 3.79431C16.4833 3.40257 16.1669 3.0711 15.7676 3.0711L9.25113 3.0711C8.95733 2.35542 8.25671 1.84314 7.43557 1.84314C6.62195 1.84314 5.9138 2.35542 5.62753 3.0711L3.45789 3.0711C3.08121 3.0711 2.76481 3.39504 2.76481 3.79431ZM11.8954 8.07333C12.4152 8.07333 12.822 8.48014 12.822 8.99995C12.822 9.52729 12.4152 9.92656 11.8954 9.92656C11.368 9.92656 10.9688 9.52729 10.9688 8.99995C10.9688 8.48014 11.368 8.07333 11.8954 8.07333ZM7.43557 13.279C7.95538 13.279 8.36972 13.6933 8.36972 14.2131C8.36972 14.7405 7.95538 15.1397 7.43557 15.1397C6.90822 15.1397 6.50895 14.7405 6.50895 14.2131C6.50895 13.6933 6.90822 13.279 7.43557 13.279ZM7.43557 2.86769C7.95538 2.86769 8.36972 3.2745 8.36972 3.79431C8.36972 4.32165 7.95538 4.72093 7.43557 4.72093C6.90822 4.72093 6.50895 4.32165 6.50895 3.79431C6.50895 3.2745 6.90822 2.86769 7.43557 2.86769Z" fill="#787878"/>
</svg>
