<svg width="18" height="18" viewBox="0 0 18 18" fill="none" xmlns="http://www.w3.org/2000/svg">
<path d="M7.74184 13.3142C8.93966 13.3142 10.0622 12.9526 10.9963 12.3349L14.296 15.6421C14.5144 15.853 14.7932 15.9585 15.0945 15.9585C15.7198 15.9585 16.1793 15.4688 16.1793 14.8511C16.1793 14.5648 16.0814 14.2861 15.8705 14.0751L12.5934 10.783C13.2714 9.81871 13.6707 8.65102 13.6707 7.38539C13.6707 4.1234 11.0038 1.45654 7.74184 1.45654C4.48737 1.45654 1.81299 4.1234 1.81299 7.38539C1.81299 10.6474 4.47984 13.3142 7.74184 13.3142ZM7.74184 11.7322C5.35373 11.7322 3.39502 9.77351 3.39502 7.38539C3.39502 4.99728 5.35373 3.03857 7.74184 3.03857C10.13 3.03857 12.0887 4.99728 12.0887 7.38539C12.0887 9.77351 10.13 11.7322 7.74184 11.7322Z" fill="#C6C6C6"/>
</svg>
