<svg width="18" height="18" viewBox="0 0 18 18" fill="none" xmlns="http://www.w3.org/2000/svg">
<path d="M2.76493 9.00007C2.76493 9.39934 3.08133 9.72328 3.48061 9.72328L10.0875 9.72328C10.3737 10.439 11.0819 10.9512 11.8955 10.9512C12.7091 10.9512 13.4173 10.439 13.7035 9.72328L15.7903 9.72328C16.167 9.72328 16.4834 9.39934 16.4834 9.00007C16.4834 8.60833 16.167 8.27685 15.7903 8.27685L13.7035 8.27685C13.4173 7.56117 12.7167 7.0489 11.8955 7.0489C11.0819 7.0489 10.3737 7.56117 10.0875 8.27685L3.48061 8.27685C3.08133 8.27685 2.76493 8.60079 2.76493 9.00007ZM7.43569 12.2621C6.62207 12.2621 5.92146 12.7668 5.62765 13.4825L3.45801 13.4825C3.08133 13.4825 2.76493 13.8064 2.76493 14.2057C2.76493 14.6125 3.08133 14.9289 3.45801 14.9289L5.62765 14.9289C5.91392 15.6521 6.62207 16.1569 7.43569 16.1569C8.25684 16.1569 8.95745 15.6521 9.25126 14.9289L15.7677 14.9289C16.167 14.9289 16.4834 14.605 16.4834 14.2057C16.4834 13.814 16.167 13.4825 15.7677 13.4825L9.24372 13.4825C8.95745 12.7668 8.25684 12.2621 7.43569 12.2621ZM2.76493 3.79443C2.76493 4.19371 3.08133 4.51765 3.45801 4.51765L5.62765 4.51765C5.92146 5.23333 6.62207 5.73807 7.43569 5.73807C8.25684 5.73807 8.95745 5.23333 9.24372 4.51765L15.7677 4.51765C16.167 4.51765 16.4834 4.19371 16.4834 3.79443C16.4834 3.40269 16.167 3.07122 15.7677 3.07122L9.25126 3.07122C8.95745 2.35554 8.25684 1.84326 7.43569 1.84326C6.62207 1.84326 5.91392 2.35554 5.62765 3.07122L3.45801 3.07122C3.08134 3.07122 2.76493 3.39516 2.76493 3.79443ZM11.8955 8.07345C12.4153 8.07345 12.8221 8.48026 12.8221 9.00007C12.8221 9.52741 12.4153 9.92669 11.8955 9.92669C11.3682 9.92669 10.9689 9.52741 10.9689 9.00007C10.9689 8.48026 11.3682 8.07345 11.8955 8.07345ZM7.43569 13.2791C7.9555 13.2791 8.36984 13.6934 8.36984 14.2132C8.36984 14.7406 7.9555 15.1399 7.43569 15.1399C6.90834 15.1399 6.50907 14.7406 6.50907 14.2132C6.50907 13.6934 6.90834 13.2791 7.43569 13.2791ZM7.43569 2.86781C7.9555 2.86781 8.36984 3.27462 8.36984 3.79443C8.36984 4.32178 7.9555 4.72105 7.43569 4.72105C6.90834 4.72105 6.50907 4.32178 6.50907 3.79443C6.50907 3.27462 6.90834 2.86781 7.43569 2.86781Z" fill="#C6C6C6"/>
</svg>
