<svg width="24" height="24" viewBox="0 0 24 24" fill="none" xmlns="http://www.w3.org/2000/svg">
<path d="M3.15562 16.8264H9.88302V15.3649H3.25356C2.75635 15.3649 2.53034 15.1615 2.53034 14.6492V6.1364C2.53034 5.62413 2.75635 5.42072 3.25356 5.42072H18.0569C18.5541 5.42072 18.7801 5.62413 18.7801 6.1364V12.796H20.2416V6.046C20.2416 4.65231 19.5259 3.95923 18.1548 3.95923H3.15562C1.78453 3.95923 1.06885 4.65231 1.06885 6.046V14.7396C1.06885 16.1333 1.78453 16.8264 3.15562 16.8264ZM12.7608 20.2994H21.2435C22.3509 20.2994 22.931 19.7117 22.931 18.5892V15.6889C22.931 14.5588 22.3509 13.9788 21.2435 13.9788H12.7608C11.6383 13.9788 11.0658 14.5588 11.0658 15.6587V18.5892C11.0658 19.7117 11.6383 20.2994 12.7608 20.2994ZM20.2642 17.6325C19.7368 17.6325 19.3074 17.2106 19.3074 16.6757C19.3074 16.1635 19.7368 15.7341 20.2642 15.7341C20.7764 15.7341 21.2058 16.1635 21.2058 16.6757C21.2058 17.2106 20.7764 17.6325 20.2642 17.6325ZM6.80183 19.4631H9.98849C9.90562 19.1166 9.88302 18.7098 9.88302 18.0845H6.80183C6.42515 18.0845 6.11628 18.4009 6.11628 18.7776C6.11628 19.1543 6.42515 19.4631 6.80183 19.4631Z" fill="white"/>
</svg>
