<svg width="161" height="42" viewBox="0 0 161 42" fill="none" xmlns="http://www.w3.org/2000/svg">
<g clip-path="url(#clip0_55_2022)">
<path fill-rule="evenodd" clip-rule="evenodd" d="M113.859 21C113.859 15.111 116.813 10.4 122.14 10.4C127.468 10.4 130.421 15.111 130.421 21C130.421 26.89 127.467 31.6 122.141 31.6C116.813 31.6 113.859 26.89 113.859 21ZM122.14 28.66C124.212 28.66 125.094 25.126 125.094 21.008C125.094 16.888 124.205 13.356 122.14 13.356C120.075 13.356 119.186 16.889 119.186 21.008C119.179 25.126 120.068 28.66 122.14 28.66ZM58.843 10.7V16.296H59.137L62.98 10.7H68.3L61.202 17.174L61.496 17.467L74.51 10.693V15.404L62.973 19.523V19.815L74.51 18.787V23.206L62.973 22.178V22.471L74.51 26.589V31.301L61.496 24.526L61.202 24.819L68.3 31.293H62.98L59.137 25.697H58.843V31.293H55V10.686H58.843V10.7ZM78.073 10.7H83.1L82.806 23.063H83.1L89.015 10.7H93.453V31.308H88.427L88.721 18.944H88.427L82.51 31.309H78.072V10.7H78.073ZM102.028 10.7H97.002V31.308H102.028V22.178H106.165V31.308H111.191V10.7H106.165V18.652H102.028V10.7ZM147.278 10.7H133.088V31.308H138.115V14.233H142.252V31.308H147.278V10.7ZM149.938 21C149.938 15.111 152.892 10.4 158.22 10.4C163.54 10.4 166.501 15.111 166.501 21C166.501 26.89 163.547 31.6 158.22 31.6C152.9 31.6 149.938 26.89 149.938 21ZM158.22 28.66C160.292 28.66 161.174 25.126 161.174 21.008C161.174 16.888 160.285 13.356 158.22 13.356C156.148 13.356 155.266 16.889 155.266 21.008C155.266 25.126 156.148 28.66 158.22 28.66ZM174.187 10.7H169.161V31.308H173.599L179.515 18.944H179.809L179.515 31.308H184.541V10.7H180.103L174.187 23.063H173.893L174.187 10.7ZM197.856 24.241L202.588 24.826C201.699 28.946 199.634 31.6 195.224 31.6C189.904 31.6 187.208 26.89 187.208 21C187.208 15.111 189.897 10.4 195.224 10.4C199.541 10.4 201.699 13.049 202.588 16.875L197.856 18.052C197.562 15.989 196.701 13.342 195.224 13.342C193.453 13.342 192.535 16.875 192.535 20.993C192.535 25.083 193.453 28.645 195.224 28.645C196.673 28.66 197.554 26.304 197.856 24.241ZM209.686 10.701H204.954V31.308H209.686V22.178H209.98L213.529 31.308H219L213.823 20.708L218.849 10.7H213.823L209.98 19.83H209.686V10.7V10.701Z" fill="black"/>
</g>
<g clip-path="url(#clip1_55_2022)">
<path fill-rule="evenodd" clip-rule="evenodd" d="M65.859 21C65.859 15.111 68.813 10.4 74.14 10.4C79.468 10.4 82.421 15.111 82.421 21C82.421 26.89 79.467 31.6 74.141 31.6C68.813 31.6 65.859 26.89 65.859 21ZM74.14 28.66C76.212 28.66 77.094 25.126 77.094 21.008C77.094 16.888 76.205 13.356 74.14 13.356C72.075 13.356 71.186 16.889 71.186 21.008C71.179 25.126 72.068 28.66 74.14 28.66ZM10.843 10.7V16.296H11.137L14.98 10.7H20.3L13.202 17.174L13.496 17.467L26.51 10.693V15.404L14.973 19.523V19.815L26.51 18.787V23.206L14.973 22.178V22.471L26.51 26.589V31.301L13.496 24.526L13.202 24.819L20.3 31.293H14.98L11.137 25.697H10.843V31.293H7V10.686H10.843V10.7ZM30.073 10.7H35.1L34.806 23.063H35.1L41.015 10.7H45.453V31.308H40.427L40.721 18.944H40.427L34.51 31.309H30.072V10.7H30.073ZM54.028 10.7H49.002V31.308H54.028V22.178H58.165V31.308H63.191V10.7H58.165V18.652H54.028V10.7ZM99.278 10.7H85.088V31.308H90.115V14.233H94.252V31.308H99.278V10.7ZM101.938 21C101.938 15.111 104.892 10.4 110.22 10.4C115.54 10.4 118.501 15.111 118.501 21C118.501 26.89 115.547 31.6 110.22 31.6C104.9 31.6 101.938 26.89 101.938 21ZM110.22 28.66C112.292 28.66 113.174 25.126 113.174 21.008C113.174 16.888 112.285 13.356 110.22 13.356C108.148 13.356 107.266 16.889 107.266 21.008C107.266 25.126 108.148 28.66 110.22 28.66ZM126.187 10.7H121.161V31.308H125.599L131.515 18.944H131.809L131.515 31.308H136.541V10.7H132.103L126.187 23.063H125.893L126.187 10.7ZM149.856 24.241L154.588 24.826C153.699 28.946 151.634 31.6 147.224 31.6C141.904 31.6 139.208 26.89 139.208 21C139.208 15.111 141.897 10.4 147.224 10.4C151.541 10.4 153.699 13.049 154.588 16.875L149.856 18.052C149.562 15.989 148.701 13.342 147.224 13.342C145.453 13.342 144.535 16.875 144.535 20.993C144.535 25.083 145.453 28.645 147.224 28.645C148.673 28.66 149.554 26.304 149.856 24.241ZM161.686 10.701H156.954V31.308H161.686V22.178H161.98L165.529 31.308H171L165.823 20.708L170.849 10.7H165.823L161.98 19.83H161.686V10.7V10.701Z" fill="black"/>
</g>
<path d="M4.38971 8H5.71246V1.65869H4.43365L1.5816 5.86426H1.5025V1.65869H0.179747V8H1.45856L4.31061 3.79883H4.38971V8ZM12.0761 8V1.65869H7.71232L7.52336 5.38965C7.47941 6.21143 7.33 6.82666 6.684 6.82666C6.56975 6.82666 6.45109 6.80469 6.38957 6.7915V8C6.47307 8.02637 6.65324 8.05713 6.86857 8.05713C8.18254 8.05713 8.66154 7.04639 8.74504 5.48193L8.89885 2.79248H10.7489V8H12.0761ZM13.3465 8H15.97C17.2708 8 18.1673 7.15625 18.1673 5.88184C18.1673 4.61182 17.24 3.76367 15.9041 3.76367H14.6736V1.65869H13.3465V8ZM14.6736 6.90576V4.84473H15.614C16.3699 4.84473 16.8094 5.20508 16.8094 5.87744C16.8094 6.54541 16.3743 6.90576 15.6184 6.90576H14.6736ZM22.4699 4.71289H21.3976C20.6813 4.71289 20.2638 4.34375 20.2638 3.72412C20.2638 3.10889 20.6901 2.73535 21.3932 2.73535H22.4699V4.71289ZM21.5822 5.72363H22.4699V8H23.7838V1.65869H21.2086C19.7936 1.65869 18.9059 2.48926 18.9059 3.71973C18.9059 4.60742 19.4596 5.27539 20.2726 5.53467L18.6071 8H20.0748L21.5822 5.72363ZM27.748 8.1626C29.2773 8.1626 30.3936 7.21777 30.5034 5.84668H29.2114C29.084 6.54541 28.5127 6.99365 27.7524 6.99365C26.7505 6.99365 26.1309 6.16309 26.1309 4.82715C26.1309 3.49121 26.7505 2.66504 27.748 2.66504C28.5039 2.66504 29.0796 3.14404 29.207 3.87354H30.499C30.4023 2.49365 29.251 1.49609 27.748 1.49609C25.9067 1.49609 24.7729 2.76611 24.7729 4.82715C24.7729 6.89258 25.9111 8.1626 27.748 8.1626Z" fill="black"/>
<path d="M76.2745 4.35254V1.65869H74.9473V8H76.2745V5.40283H76.4854L78.7442 8H80.3482L77.5972 4.76123L80.1724 1.65869H78.6959L76.4766 4.35254H76.2745ZM85.0595 8H86.4965L84.2948 1.65869H82.7348L80.5331 8H81.8647L82.3525 6.48828H84.5805L85.0595 8ZM83.4335 2.97705H83.5126L84.2992 5.46436H82.6381L83.4335 2.97705ZM94.0203 8V1.65869H92.4602L90.7024 5.92139H90.6233L88.8699 1.65869H87.3054V8H88.5359V3.75928H88.6062L90.2234 7.63525H91.1067L92.7195 3.75928H92.7898V8H94.0203ZM99.4962 8H100.819V1.65869H99.5402L96.6881 5.86426H96.609V1.65869H95.2863V8H96.5651L99.4171 3.79883H99.4962V8ZM107.183 8V1.65869H102.819L102.63 5.38965C102.586 6.21143 102.437 6.82666 101.791 6.82666C101.676 6.82666 101.558 6.80469 101.496 6.7915V8C101.58 8.02637 101.76 8.05713 101.975 8.05713C103.289 8.05713 103.768 7.04639 103.852 5.48193L104.005 2.79248H105.855V8H107.183Z" fill="black"/>
<path d="M57.0229 40H58.3457V33.6587H57.0669L54.2148 37.8643H54.1357V33.6587H52.813V40H54.0918L56.9438 35.7988H57.0229V40ZM64.7093 40V33.6587H60.3456L60.1566 37.3896C60.1127 38.2114 59.9632 38.8267 59.3172 38.8267C59.203 38.8267 59.0843 38.8047 59.0228 38.7915V40C59.1063 40.0264 59.2865 40.0571 59.5018 40.0571C60.8158 40.0571 61.2948 39.0464 61.3783 37.4819L61.5321 34.7925H63.3822V40H64.7093ZM65.9797 40H68.6032C69.904 40 70.8005 39.1562 70.8005 37.8818C70.8005 36.6118 69.8733 35.7637 68.5373 35.7637H67.3069V33.6587H65.9797V40ZM67.3069 38.9058V36.8447H68.2473C69.0031 36.8447 69.4426 37.2051 69.4426 37.8774C69.4426 38.5454 69.0075 38.9058 68.2517 38.9058H67.3069ZM75.1031 36.7129H74.0308C73.3145 36.7129 72.8971 36.3438 72.8971 35.7241C72.8971 35.1089 73.3233 34.7354 74.0264 34.7354H75.1031V36.7129ZM74.2154 37.7236H75.1031V40H76.4171V33.6587H73.8419C72.4268 33.6587 71.5391 34.4893 71.5391 35.7197C71.5391 36.6074 72.0929 37.2754 72.9058 37.5347L71.2403 40H72.7081L74.2154 37.7236Z" fill="black"/>
<path d="M118.107 40V33.6587H116.78V36.2163H113.924V33.6587H112.596V40H113.924V37.3501H116.78V40H118.107ZM123.583 40H124.906V33.6587H123.627L120.775 37.8643H120.696V33.6587H119.373V40H120.652L123.504 35.7988H123.583V40ZM127.503 36.3525V33.6587H126.176V40H127.503V37.4028H127.714L129.973 40H131.577L128.826 36.7612L131.401 33.6587H129.925L127.705 36.3525H127.503ZM136.512 40H137.835V33.6587H136.556L133.704 37.8643H133.625V33.6587H132.303V40H133.581L136.433 35.7988H136.512V40ZM141.971 40V34.7925H143.874V33.6587H138.741V34.7925H140.644V40H141.971ZM148.207 40H149.644L147.442 33.6587H145.882L143.681 40H145.012L145.5 38.4883H147.728L148.207 40ZM146.581 34.9771H146.66L147.447 37.4644H145.786L146.581 34.9771Z" fill="black"/>
<path d="M134.93 1.49609C133.067 1.49609 131.876 2.77051 131.876 4.82715C131.876 6.88379 133.049 8.1626 134.93 8.1626C136.807 8.1626 137.976 6.88379 137.976 4.82715C137.976 2.7749 136.802 1.49609 134.93 1.49609ZM134.93 2.66064C135.963 2.66064 136.622 3.5 136.622 4.82715C136.622 6.1499 135.963 6.99805 134.93 6.99805C133.889 6.99805 133.234 6.1499 133.234 4.82715C133.234 3.5 133.902 2.66064 134.93 2.66064ZM143.834 8V1.65869H139.47L139.281 5.38965C139.237 6.21143 139.088 6.82666 138.442 6.82666C138.328 6.82666 138.209 6.80469 138.147 6.7915V8C138.231 8.02637 138.411 8.05713 138.626 8.05713C139.94 8.05713 140.419 7.04639 140.503 5.48193L140.657 2.79248H142.507V8H143.834ZM145.104 8H147.728C149.029 8 149.925 7.15625 149.925 5.88184C149.925 4.61182 148.998 3.76367 147.662 3.76367H146.431V1.65869H145.104V8ZM146.431 6.90576V4.84473H147.372C148.128 4.84473 148.567 5.20508 148.567 5.87744C148.567 6.54541 148.132 6.90576 147.376 6.90576H146.431ZM152.211 8V2.79688H154.966V1.65869H150.879V8H152.211ZM159.207 8H160.644L158.442 1.65869H156.882L154.681 8H156.012L156.5 6.48828H158.728L159.207 8ZM157.581 2.97705H157.66L158.447 5.46436H156.786L157.581 2.97705Z" fill="black"/>
<path d="M33 2.75C32.8619 2.75 32.75 2.86193 32.75 3C32.75 3.13807 32.8619 3.25 33 3.25V2.75ZM38 3H38.25C38.25 2.86193 38.1381 2.75 38 2.75V3ZM37.8232 8.17678C37.9209 8.27441 38.0791 8.27441 38.1768 8.17678L39.7678 6.58579C39.8654 6.48816 39.8654 6.32986 39.7678 6.23223C39.6701 6.1346 39.5118 6.1346 39.4142 6.23223L38 7.64645L36.5858 6.23223C36.4882 6.1346 36.3299 6.1346 36.2322 6.23223C36.1346 6.32986 36.1346 6.48816 36.2322 6.58579L37.8232 8.17678ZM33 3.25H38V2.75H33V3.25ZM37.75 3V8H38.25V3H37.75Z" fill="black"/>
<path d="M72 2.75C72.1381 2.75 72.25 2.86193 72.25 3C72.25 3.13807 72.1381 3.25 72 3.25V2.75ZM65 3H64.75C64.75 2.86193 64.8619 2.75 65 2.75V3ZM65.1768 8.17678C65.0791 8.27441 64.9209 8.27441 64.8232 8.17678L63.2322 6.58579C63.1346 6.48816 63.1346 6.32986 63.2322 6.23223C63.3299 6.1346 63.4882 6.1346 63.5858 6.23223L65 7.64645L66.4142 6.23223C66.5118 6.1346 66.6701 6.1346 66.7678 6.23223C66.8654 6.32986 66.8654 6.48816 66.7678 6.58579L65.1768 8.17678ZM72 3.25H65V2.75H72V3.25ZM65.25 3V8H64.75V3H65.25Z" fill="black"/>
<path d="M129 2.75C129.138 2.75 129.25 2.86193 129.25 3C129.25 3.13807 129.138 3.25 129 3.25V2.75ZM122 3H121.75C121.75 2.86193 121.862 2.75 122 2.75V3ZM122.177 8.17678C122.079 8.27441 121.921 8.27441 121.823 8.17678L120.232 6.58579C120.135 6.48816 120.135 6.32986 120.232 6.23223C120.33 6.1346 120.488 6.1346 120.586 6.23223L122 7.64645L123.414 6.23223C123.512 6.1346 123.67 6.1346 123.768 6.23223C123.865 6.32986 123.865 6.48816 123.768 6.58579L122.177 8.17678ZM129 3.25H122V2.75H129V3.25ZM122.25 3V8H121.75V3H122.25Z" fill="black"/>
<path d="M109 39.25C109.138 39.25 109.25 39.1381 109.25 39C109.25 38.8619 109.138 38.75 109 38.75L109 39.25ZM104 39L103.75 39C103.75 39.1381 103.862 39.25 104 39.25L104 39ZM104.177 33.8232C104.079 33.7256 103.921 33.7256 103.823 33.8232L102.232 35.4142C102.135 35.5118 102.135 35.6701 102.232 35.7678C102.33 35.8654 102.488 35.8654 102.586 35.7678L104 34.3536L105.414 35.7678C105.512 35.8654 105.67 35.8654 105.768 35.7678C105.865 35.6701 105.865 35.5118 105.768 35.4142L104.177 33.8232ZM109 38.75L104 38.75L104 39.25L109 39.25L109 38.75ZM104.25 39L104.25 34L103.75 34L103.75 39L104.25 39Z" fill="black"/>
<path d="M80 39.25C79.8619 39.25 79.75 39.1381 79.75 39C79.75 38.8619 79.8619 38.75 80 38.75L80 39.25ZM86 39L86.25 39C86.25 39.1381 86.1381 39.25 86 39.25L86 39ZM85.8232 33.8232C85.9209 33.7256 86.0791 33.7256 86.1768 33.8232L87.7678 35.4142C87.8654 35.5118 87.8654 35.6701 87.7678 35.7678C87.6701 35.8654 87.5118 35.8654 87.4142 35.7678L86 34.3536L84.5858 35.7678C84.4882 35.8654 84.3299 35.8654 84.2322 35.7678C84.1346 35.6701 84.1346 35.5118 84.2322 35.4142L85.8232 33.8232ZM80 38.75L86 38.75L86 39.25L80 39.25L80 38.75ZM85.75 39L85.75 34L86.25 34L86.25 39L85.75 39Z" fill="black"/>
<defs>
<clipPath id="clip0_55_2022">
<rect width="77" height="22" fill="white" transform="translate(55 10)"/>
</clipPath>
<clipPath id="clip1_55_2022">
<rect width="18" height="22" fill="white" transform="translate(29 10)"/>
</clipPath>
</defs>
</svg>
