<svg width="84" height="24" viewBox="0 0 84 24" fill="none" xmlns="http://www.w3.org/2000/svg">
<path d="M29.5463 7.53882C28.5134 7.5384 27.5036 7.84418 26.6444 8.4175C25.7853 8.99082 25.1153 9.80596 24.7193 10.7599C24.3233 11.7138 24.2189 12.7638 24.4194 13.777C24.6198 14.7903 25.1162 15.7214 25.8457 16.4526C26.5751 17.1838 27.505 17.6824 28.5178 17.8854C29.5305 18.0883 30.5807 17.9865 31.5356 17.5928C32.4905 17.1991 33.3073 16.5311 33.8827 15.6733C34.4581 14.8156 34.7663 13.8065 34.7684 12.7736C34.7698 12.0868 34.6358 11.4065 34.374 10.7716C34.1122 10.1367 33.7278 9.55965 33.2428 9.07344C32.7577 8.58724 32.1816 8.20143 31.5473 7.93811C30.9131 7.67478 30.2331 7.5391 29.5463 7.53882Z" fill="white"/>
<path d="M17.8808 7.5388C17.1492 7.5376 16.4285 7.71657 15.7825 8.0599C15.1364 8.40323 14.5848 8.90037 14.1764 9.5074C13.6442 8.716 12.8725 8.11584 11.9745 7.79486C11.0764 7.47388 10.0991 7.44894 9.18581 7.72371C8.27253 7.99847 7.47124 8.5585 6.89935 9.32173C6.32745 10.085 6.01502 11.0113 6.00781 11.965H6.00781V12.0052V17.6803H7.53612V11.9819C7.53921 11.2021 7.85194 10.4555 8.40552 9.90629C8.9591 9.35707 9.70818 9.05027 10.488 9.05335C11.2678 9.05644 12.0144 9.36917 12.5636 9.92275C13.1128 10.4763 13.4196 11.2254 13.4165 12.0052V12.0052V17.6803H14.9406V11.9946C14.9612 11.2288 15.2798 10.5012 15.8288 9.96675C16.3777 9.43234 17.1136 9.1333 17.8797 9.1333C18.6459 9.1333 19.3817 9.43234 19.9307 9.96675C20.4797 10.5012 20.7983 11.2288 20.8189 11.9946V17.6803H22.3472V11.965C22.3371 10.7872 21.8621 9.66116 21.0255 8.83211C20.1889 8.00306 19.0586 7.5382 17.8808 7.5388V7.5388Z" fill="white"/>
<path d="M41.178 7.54094C40.0066 7.54923 38.8855 8.0178 38.0566 8.8455C37.2277 9.6732 36.7575 10.7936 36.7476 11.965V11.965V12.0052V17.6803H38.2759V11.9819C38.2814 11.2078 38.5923 10.4672 39.1409 9.92104C39.6894 9.37485 40.4314 9.06722 41.2055 9.06501H41.2923V7.53882H41.1801L41.178 7.54094Z" fill="white"/>
<path d="M47.8608 7.55152C46.9333 7.55149 46.0225 7.79837 45.222 8.26681C44.4216 8.73524 43.7602 9.40835 43.3059 10.217C42.8517 11.0256 42.6209 11.9405 42.6372 12.8679C42.6536 13.7952 42.9165 14.7015 43.399 15.4936C43.8816 16.2856 44.5662 16.935 45.3827 17.3749C46.1993 17.8148 47.1182 18.0294 48.0451 17.9967C48.972 17.9639 49.8734 17.685 50.6569 17.1886C51.4403 16.6921 52.0775 15.9961 52.5029 15.1719L51.1672 14.4332C50.807 15.1519 50.2223 15.7337 49.5017 16.0901C48.7811 16.4466 47.9639 16.5584 47.1741 16.4086C46.3842 16.2588 45.6647 15.8555 45.1248 15.2598C44.5848 14.6642 44.2537 13.9088 44.1818 13.108H53.0723C53.0723 13.0022 53.0892 12.8964 53.0892 12.7863C53.0906 12.099 52.9564 11.4182 52.6942 10.7829C52.432 10.1475 52.047 9.57018 51.5613 9.08389C51.0756 8.5976 50.4987 8.21193 49.8637 7.94898C49.2287 7.68602 48.5481 7.55096 47.8608 7.55152V7.55152ZM44.3321 11.6644C44.5682 10.9138 45.0376 10.258 45.672 9.79253C46.3065 9.32702 47.0728 9.07602 47.8597 9.07602C48.6466 9.07602 49.413 9.32702 50.0474 9.79253C50.6818 10.258 51.1512 10.9138 51.3873 11.6644H44.3321Z" fill="white"/>
<path d="M56.1097 15.9277C55.9175 15.9273 55.7294 15.9839 55.5693 16.0905C55.4093 16.197 55.2844 16.3486 55.2106 16.5261C55.1367 16.7036 55.1171 16.899 55.1544 17.0876C55.1916 17.2762 55.284 17.4495 55.4198 17.5856C55.5556 17.7217 55.7287 17.8144 55.9173 17.8521C56.1058 17.8898 56.3013 17.8707 56.4789 17.7972C56.6566 17.7237 56.8084 17.5992 56.9153 17.4393C57.0222 17.2795 57.0792 17.0916 57.0792 16.8993C57.0792 16.642 56.9771 16.3952 56.7954 16.2131C56.6136 16.0309 56.367 15.9283 56.1097 15.9277V15.9277Z" fill="white"/>
<path d="M61.7023 6H60.174V7.52831H58.6436V8.96349H60.174V13.214V13.2542C60.184 14.4255 60.6541 15.546 61.483 16.3737C62.3119 17.2014 63.433 17.67 64.6044 17.6782H64.7166V16.1605H64.6425C63.8684 16.1583 63.1264 15.8507 62.5779 15.3045C62.0293 14.7583 61.7185 14.0177 61.7129 13.2436V8.96349H64.7293V7.52831H61.7023V6Z" fill="white"/>
<path d="M75.8656 7.54737L71.8331 15.915L67.8006 7.54737L67.771 7.52832H66.0861L70.9716 17.6867H72.6946L77.5823 7.54737H75.8656Z" fill="white"/>
<path d="M4.00781 0.5H79.5823V-0.5H4.00781V0.5ZM83.0823 4V20H84.0823V4H83.0823ZM79.5823 23.5H4.00782V24.5H79.5823V23.5ZM0.507812 20V4H-0.492188V20H0.507812ZM4.00782 23.5C2.07482 23.5 0.507812 21.933 0.507812 20H-0.492188C-0.492188 22.4853 1.52254 24.5 4.00782 24.5V23.5ZM83.0823 20C83.0823 21.933 81.5153 23.5 79.5823 23.5V24.5C82.0676 24.5 84.0823 22.4853 84.0823 20H83.0823ZM79.5823 0.5C81.5153 0.5 83.0823 2.067 83.0823 4H84.0823C84.0823 1.51472 82.0676 -0.5 79.5823 -0.5V0.5ZM4.00781 -0.5C1.52253 -0.5 -0.492188 1.51472 -0.492188 4H0.507812C0.507812 2.067 2.07482 0.5 4.00781 0.5V-0.5Z" fill="white"/>
</svg>
