<svg width="58" height="24" viewBox="0 0 58 24" fill="none" xmlns="http://www.w3.org/2000/svg">
<path d="M12.7739 17.2265C12.107 17.3438 11.4285 17.379 10.7265 17.4726L8.58545 11.1914V17.7422C7.91861 17.8125 7.31025 17.9063 6.67847 18V6H8.45684L10.8903 12.8087V6H12.7739V17.2265ZM16.4592 10.3945C17.1847 10.3945 18.2961 10.3594 18.963 10.3594V12.2343C18.1323 12.2343 17.1612 12.2343 16.4592 12.2695V15.0586C17.559 14.9883 18.6588 14.8945 19.7702 14.8593V16.6639L14.5873 17.0741V6H19.7702V7.875H16.4592V10.3945V10.3945ZM26.7314 7.87505H24.7893V16.5C24.1575 16.5 23.5257 16.5 22.9174 16.5234V7.87505H20.9754V6H26.7315L26.7314 7.87505V7.87505ZM29.7732 10.2657H32.3355V12.1406H29.7732V16.3946H27.9363V6H33.1661V7.875H29.7732V10.2657V10.2657ZM36.208 14.7539C37.2726 14.7773 38.3489 14.8594 39.3902 14.9179V16.7695C37.7172 16.664 36.0442 16.5587 34.3361 16.5234V6H36.208V14.7539ZM40.9696 16.8984C41.5663 16.9336 42.1981 16.9688 42.8065 17.039V6H40.9696V16.8984V16.8984ZM51.0079 6L48.6328 11.707L51.0079 18C50.3058 17.9063 49.6039 17.7773 48.9019 17.6601L47.5565 14.1915L46.1878 17.379C45.5091 17.2617 44.8539 17.2265 44.1755 17.1328L46.5855 11.6367L44.4094 6H46.4216L47.6501 9.15235L48.9605 6H51.0079V6Z" fill="#D81F26"/>
<path d="M4.67847 0.5H53.0079V-0.5H4.67847V0.5ZM56.5079 4V20H57.5079V4H56.5079ZM53.0079 23.5H4.67846V24.5H53.0079V23.5ZM1.17847 20V4H0.178467V20H1.17847ZM4.67846 23.5C2.74547 23.5 1.17847 21.933 1.17847 20H0.178467C0.178467 22.4853 2.19318 24.5 4.67846 24.5V23.5ZM56.5079 20C56.5079 21.933 54.9409 23.5 53.0079 23.5V24.5C55.4932 24.5 57.5079 22.4853 57.5079 20H56.5079ZM53.0079 0.5C54.9409 0.5 56.5079 2.067 56.5079 4H57.5079C57.5079 1.51472 55.4932 -0.5 53.0079 -0.5V0.5ZM4.67847 -0.5C2.19319 -0.5 0.178467 1.51472 0.178467 4H1.17847C1.17847 2.067 2.74547 0.5 4.67847 0.5V-0.5Z" fill="white"/>
</svg>
