<svg width="46" height="24" viewBox="0 0 46 24" fill="none" xmlns="http://www.w3.org/2000/svg">
<path d="M26.5741 16.3114L27.0425 15.6308L29.064 17.8909H31.8107L28.2362 13.8973L31.4256 9.27448H28.9421L26.5741 12.7095V6.24398H24.5333V17.8909H26.5741V16.3114V16.3114ZM18.7063 16.3114L19.1748 15.6372L21.1963 17.8973H23.9429L20.3684 13.8973L23.5579 9.27448H21.0743L18.7063 12.7095V6.24398H16.6656V17.8909H18.7063V16.3114ZM30.6812 13.4735C30.6812 15.9711 32.6963 18 35.1798 18C37.6634 18 39.6784 15.9711 39.6784 13.4735C39.6784 10.9759 37.6634 8.94703 35.1798 8.94703C32.6963 8.94703 30.6812 10.9695 30.6812 13.4735ZM11.3263 8.94703C8.84276 8.94703 6.8277 10.9695 6.8277 13.4735C6.8277 15.9711 8.84276 18 11.3263 18C13.8098 18 15.8249 15.9711 15.8249 13.4735C15.8313 10.9695 13.8163 8.94703 11.3263 8.94703ZM11.2878 6C10.7231 6 10.2674 6.45586 10.2674 7.02729C10.2674 7.5923 10.7231 8.05457 11.2878 8.05457C11.8525 8.05457 12.3082 7.5923 12.3082 7.02729C12.3082 6.45586 11.8525 6 11.2878 6ZM13.7842 6C13.2194 6 12.7638 6.45586 12.7638 7.02729C12.7638 7.5923 13.2194 8.05457 13.7842 8.05457C14.3489 8.05457 14.8045 7.5923 14.8045 7.02729C14.811 6.45586 14.3489 6 13.7842 6ZM8.82993 6C8.2652 6 7.80956 6.45586 7.80956 7.02729C7.80956 7.5923 8.2652 8.05457 8.82993 8.05457C9.39466 8.05457 9.8503 7.5923 9.8503 7.02729C9.8503 6.45586 9.39466 6 8.82993 6ZM8.86843 13.4735C8.86843 12.1124 9.97223 11.0016 11.3263 11.0016C12.6804 11.0016 13.7842 12.1124 13.7842 13.4735C13.7842 14.8347 12.6804 15.9454 11.3263 15.9454C9.97223 15.9454 8.86843 14.8347 8.86843 13.4735ZM32.722 13.4735C32.722 12.1124 33.8257 11.0016 35.1798 11.0016C36.5339 11.0016 37.6377 12.1124 37.6377 13.4735C37.6377 14.8347 36.5339 15.9454 35.1798 15.9454C33.8257 15.9454 32.722 14.8347 32.722 13.4735Z" fill="white"/>
<path d="M4.8277 0.5H41.6784V-0.5H4.8277V0.5ZM45.1784 4V20H46.1784V4H45.1784ZM41.6784 23.5H4.8277V24.5H41.6784V23.5ZM1.3277 20V4H0.327698V20H1.3277ZM4.8277 23.5C2.8947 23.5 1.3277 21.933 1.3277 20H0.327698C0.327698 22.4853 2.34242 24.5 4.8277 24.5V23.5ZM45.1784 20C45.1784 21.933 43.6114 23.5 41.6784 23.5V24.5C44.1637 24.5 46.1784 22.4853 46.1784 20H45.1784ZM41.6784 0.5C43.6114 0.5 45.1784 2.067 45.1784 4H46.1784C46.1784 1.51472 44.1637 -0.5 41.6784 -0.5V0.5ZM4.8277 -0.5C2.34242 -0.5 0.327698 1.51472 0.327698 4H1.3277C1.3277 2.067 2.8947 0.5 4.8277 0.5V-0.5Z" fill="white"/>
</svg>
