<svg width="18" height="18" viewBox="0 0 18 18" fill="none" xmlns="http://www.w3.org/2000/svg">
<path d="M7.7419 13.3141C8.93972 13.3141 10.0622 12.9525 10.9964 12.3348L14.296 15.642C14.5145 15.8529 14.7932 15.9584 15.0946 15.9584C15.7199 15.9584 16.1794 15.4687 16.1794 14.851C16.1794 14.5647 16.0815 14.2859 15.8705 14.075L12.5935 10.7829C13.2715 9.81859 13.6708 8.6509 13.6708 7.38527C13.6708 4.12327 11.0039 1.45642 7.7419 1.45642C4.48744 1.45642 1.81305 4.12327 1.81305 7.38527C1.81305 10.6473 4.4799 13.3141 7.7419 13.3141ZM7.7419 11.7321C5.35379 11.7321 3.39508 9.77339 3.39508 7.38527C3.39508 4.99716 5.35379 3.03845 7.7419 3.03845C10.13 3.03845 12.0887 4.99716 12.0887 7.38527C12.0887 9.77339 10.13 11.7321 7.7419 11.7321Z" fill="#787878"/>
</svg>
