<svg width="20" height="20" viewBox="0 0 20 20" fill="none" xmlns="http://www.w3.org/2000/svg">
<path d="M3.49231 12.7724L4.03827 12.2264L3.49231 12.7724ZM7.22588 16.5061L7.77186 15.9601L7.22588 16.5061ZM9.19821 17.3522L9.74421 17.8982L9.19821 17.3522ZM8.07863 17.3588L7.53266 17.9048L8.07863 17.3588ZM16.5076 7.22461L17.0536 6.67863L16.5076 7.22461ZM12.774 3.49098L13.32 2.945L12.774 3.49098ZM12.9001 4.71L12.1788 4.4347L12.9001 4.71ZM2.64649 10.8004L2.10051 10.2545L2.64649 10.8004ZM2.63988 11.92L2.09392 12.466L2.63988 11.92ZM17.3602 8.07719L16.8143 8.62317L17.3602 8.07719ZM17.3536 9.19675L16.8076 8.65084L17.3536 9.19675ZM10.8019 2.64503L11.3479 3.191L10.8019 2.64503ZM11.9215 2.6384L11.3755 3.18438L11.9215 2.6384ZM10.2559 2.09905L2.10051 10.2545L3.19247 11.3464L11.3479 3.191L10.2559 2.09905ZM13.32 2.945L12.4675 2.09243L11.3755 3.18438L12.228 4.03695L13.32 2.945ZM13.8609 6.13776C13.5555 5.8324 13.4707 5.38055 13.6215 4.9853L12.1788 4.4347C11.8217 5.37034 12.012 6.47276 12.769 7.22971L13.8609 6.13776ZM15.0134 6.3771C14.6181 6.52795 14.1662 6.44312 13.8609 6.13776L12.769 7.22971C13.5259 7.98667 14.6283 8.17694 15.564 7.81987L15.0134 6.3771ZM17.9062 7.53121L17.0536 6.67863L15.9617 7.77059L16.8143 8.62317L17.9062 7.53121ZM9.74421 17.8982L17.8996 9.74275L16.8076 8.65084L8.65221 16.8063L9.74421 17.8982ZM6.67991 17.0521L7.53266 17.9048L8.62462 16.8128L7.77186 15.9601L6.67991 17.0521ZM6.1391 13.8593C6.44443 14.1646 6.52926 14.6164 6.37839 15.0118L7.82115 15.5623C8.17823 14.6268 7.98803 13.5243 7.23105 12.7673L6.1391 13.8593ZM4.98661 13.6199C5.38186 13.469 5.83373 13.5538 6.1391 13.8593L7.23105 12.7673C6.47408 12.0103 5.37165 11.8201 4.436 12.1771L4.98661 13.6199ZM2.09392 12.466L2.94635 13.3184L4.03827 12.2264L3.18585 11.374L2.09392 12.466ZM4.436 12.1771C4.30869 12.2258 4.19114 12.2434 4.1087 12.2386C4.03188 12.2341 4.02635 12.2145 4.03827 12.2264L2.94635 13.3184C3.58455 13.9566 4.48545 13.8112 4.98661 13.6199L4.436 12.1771ZM7.77186 15.9601C7.78379 15.972 7.76421 15.9665 7.75968 15.8897C7.75482 15.8073 7.77256 15.6897 7.82115 15.5623L6.37839 15.0118C6.18711 15.5129 6.04171 16.4138 6.67991 17.0521L7.77186 15.9601ZM8.65221 16.8063C8.64796 16.8105 8.64454 16.8123 8.64212 16.8133C8.63912 16.8146 8.63579 16.8153 8.63246 16.8153C8.62921 16.8153 8.62721 16.8147 8.62662 16.8144C8.62654 16.8144 8.62612 16.8143 8.62462 16.8128L7.53266 17.9048C8.1476 18.5198 9.13779 18.5046 9.74421 17.8982L8.65221 16.8063ZM15.564 7.81987C15.6913 7.77129 15.8088 7.75354 15.8913 7.7584C15.968 7.76293 15.9736 7.78251 15.9617 7.77059L17.0536 6.67863C16.4155 6.04044 15.5145 6.18584 15.0134 6.3771L15.564 7.81987ZM12.228 4.03695C12.2161 4.02503 12.2357 4.03056 12.2402 4.10739C12.2451 4.18983 12.2274 4.30738 12.1788 4.4347L13.6215 4.9853C13.8128 4.48411 13.9582 3.5832 13.32 2.945L12.228 4.03695ZM2.10051 10.2545C1.49409 10.8609 1.47896 11.8511 2.09392 12.466L3.18585 11.374C3.18432 11.3725 3.18431 11.3721 3.18428 11.3721C3.18404 11.3714 3.18341 11.3695 3.18342 11.3662C3.18345 11.3628 3.18412 11.3595 3.18534 11.3566C3.18636 11.3541 3.18817 11.3508 3.19247 11.3464L2.10051 10.2545ZM16.8143 8.62317C16.8158 8.62467 16.8158 8.62509 16.8158 8.62517C16.816 8.62575 16.8167 8.62775 16.8167 8.63109C16.8166 8.63434 16.816 8.63767 16.8148 8.64067C16.8137 8.64317 16.812 8.6465 16.8076 8.65084L17.8996 9.74275C18.506 9.13634 18.5211 8.14614 17.9062 7.53121L16.8143 8.62317ZM11.3479 3.191C11.3521 3.18671 11.3555 3.1849 11.358 3.18388C11.361 3.18265 11.3643 3.18198 11.3676 3.18196C11.3709 3.18194 11.3729 3.18257 11.3735 3.18281C11.3735 3.18284 11.374 3.18286 11.3755 3.18438L12.4675 2.09243C11.8525 1.47749 10.8623 1.49264 10.2559 2.09905L11.3479 3.191Z" fill="white"/>
<path d="M9.86261 7.53851L9.67619 7.72494C9.35077 8.05038 9.35077 8.57799 9.67619 8.90349L11.2276 10.4548C11.553 10.7802 12.0806 10.7802 12.4061 10.4548L12.5925 10.2684C12.9179 9.94299 12.9179 9.41532 12.5925 9.08991L11.0411 7.53851C10.7157 7.21308 10.188 7.21308 9.86261 7.53851Z" fill="white"/>
</svg>
