<svg width="18" height="18" viewBox="0 0 18 18" fill="none" xmlns="http://www.w3.org/2000/svg">
<path d="M5.34439 11.5294C5.10708 11.7667 5.09578 12.1904 5.35004 12.4334C5.59299 12.6877 6.0224 12.6764 6.25971 12.4391L9.00001 9.69875L11.7403 12.4391C11.9833 12.682 12.4014 12.6877 12.6443 12.4334C12.8986 12.1904 12.8929 11.7667 12.65 11.5237L9.90968 8.78343L12.65 6.04878C12.8929 5.80017 12.8986 5.38206 12.6443 5.13911C12.4014 4.88485 11.9833 4.8905 11.7403 5.13346L9.00001 7.87376L6.25971 5.13346C6.0224 4.89615 5.59299 4.88485 5.35004 5.13911C5.09578 5.38206 5.10708 5.80582 5.34439 6.04313L8.08469 8.78343L5.34439 11.5294Z" fill="#787878"/>
</svg>
